<?xml version="1.0" standalone="no"?>
<!DOCTYPE svg PUBLIC "-//W3C//DTD SVG 20010904//EN"
 "http://www.w3.org/TR/2001/REC-SVG-20010904/DTD/svg10.dtd">
<svg version="1.0" xmlns="http://www.w3.org/2000/svg"
 width="600.000000pt" height="600.000000pt" viewBox="0 0 600.000000 600.000000"
 preserveAspectRatio="xMidYMid meet">

<g transform="translate(0.000000,600.000000) scale(0.100000,-0.100000)"
fill="#000000" stroke="none">
<path d="M2725 4555 c-445 -230 -787 -381 -965 -425 -47 -12 -91 -29 -97 -38
-19 -24 -18 -1456 1 -1562 63 -350 403 -713 981 -1045 131 -75 333 -175 355
-175 22 0 224 99 355 175 576 330 918 695 981 1045 7 42 13 148 14 241 0 148
-2 168 -18 182 -22 20 -55 22 -70 5 -5 -8 -12 -100 -14 -213 -5 -182 -7 -207
-31 -280 -53 -160 -146 -294 -324 -465 -203 -196 -471 -377 -796 -536 l-97
-49 -118 59 c-334 166 -621 366 -823 573 -152 156 -234 282 -281 433 l-23 75
0 734 0 734 75 22 c183 53 539 211 927 411 l241 124 314 -158 c422 -212 668
-320 858 -377 l75 -22 3 -293 c1 -196 6 -298 13 -307 17 -20 67 -16 79 6 16
30 14 642 -2 664 -7 9 -51 25 -98 37 -178 45 -477 176 -939 411 -161 82 -298
149 -305 148 -6 0 -128 -61 -271 -134z"/>
<path d="M2771 4261 c-113 -58 -209 -114 -215 -123 -16 -27 8 -68 40 -68 15 0
111 43 214 97 l187 96 304 -150 c310 -154 525 -248 637 -279 l62 -17 0 -132
c0 -138 5 -155 46 -155 48 0 54 20 54 184 0 111 -4 157 -13 170 -8 11 -44 27
-86 37 -127 32 -326 118 -663 286 -180 90 -335 163 -345 162 -10 -1 -110 -49
-222 -108z"/>
<path d="M2233 3990 c-26 -11 -76 -134 -106 -264 -31 -139 -29 -357 6 -488 59
-222 186 -389 362 -476 78 -39 131 -53 235 -60 l85 -7 37 -111 c70 -205 79
-269 85 -562 l5 -264 -43 23 c-413 208 -736 485 -845 723 -39 85 -54 176 -54
331 0 96 -4 145 -12 153 -19 19 -66 15 -78 -7 -13 -25 -13 -267 1 -351 40
-250 250 -503 619 -749 153 -102 433 -251 470 -251 60 0 475 241 645 374 76
60 204 184 266 258 115 139 197 336 157 376 -26 26 -88 0 -88 -36 0 -29 -46
-128 -90 -196 -89 -137 -241 -281 -440 -418 -96 -66 -376 -228 -395 -228 -16
0 -8 351 11 445 50 249 212 488 400 586 67 36 73 100 10 107 -31 4 -169 -83
-225 -142 -19 -20 -39 -36 -44 -36 -6 0 -7 29 -3 73 28 313 376 473 799 366
26 -6 47 -14 47 -16 0 -3 -13 -22 -28 -42 -16 -20 -68 -96 -117 -169 -104
-157 -202 -267 -275 -306 -58 -31 -139 -56 -186 -56 -54 0 -82 -51 -46 -83 49
-44 235 6 349 95 68 52 149 153 275 341 54 81 115 166 134 187 42 47 42 76 -1
101 -51 30 -196 67 -303 77 -466 47 -800 -227 -744 -610 8 -54 8 -85 2 -93 -6
-7 -30 -52 -54 -100 l-44 -88 -11 44 c-70 275 -196 533 -363 736 -68 83 -101
99 -130 63 -23 -29 -23 -30 10 -72 141 -183 252 -352 238 -365 -14 -14 -155
20 -224 54 -226 111 -364 425 -323 738 12 94 48 242 60 250 4 2 39 -19 77 -48
38 -29 126 -92 194 -142 159 -114 287 -237 328 -313 37 -70 62 -159 62 -223 0
-50 21 -79 57 -79 38 0 46 24 40 113 -15 227 -122 366 -473 617 -83 60 -183
136 -223 169 -40 34 -74 61 -74 60 -1 0 -12 -4 -24 -9z"/>
</g>
</svg>
