<?xml version="1.0" encoding="UTF-8"?>
<svg version="1.1" xmlns="http://www.w3.org/2000/svg" width="85" height="85">
<path d="M0 0 C28.05 0 56.1 0 85 0 C85 28.05 85 56.1 85 85 C56.95 85 28.9 85 0 85 C0 56.95 0 28.9 0 0 Z " fill="#FBFBFB" transform="translate(0,0)"/>
<path d="M0 0 C1.11375 0.2475 1.11375 0.2475 2.25 0.5 C5.19006578 1.11925696 5.19006578 1.11925696 9 1 C11.03515625 1.76953125 11.03515625 1.76953125 13.0625 2.8125 C13.73410156 3.14894531 14.40570313 3.48539063 15.09765625 3.83203125 C17.05342689 5.03280213 18.44671353 6.32064971 20 8 C20.495 8.495 20.99 8.99 21.5 9.5 C21.995 9.995 22.49 10.49 23 11 C23.495 11.474375 23.99 11.94875 24.5 12.4375 C26 14 26 14 27.625 16.1875 C28.305625 17.0846875 28.305625 17.0846875 29 18 C29.33 18 29.66 18 30 18 C30.33 20.64 30.66 23.28 31 26 C31.66 26 32.32 26 33 26 C37.76923077 33.84615385 37.76923077 33.84615385 38 38 C37.34 38.99 36.68 39.98 36 41 C36.86975999 43.9237114 36.86975999 43.9237114 38.375 47 C41 52.72727273 41 52.72727273 41 56 C41.66 56 42.32 56 43 56 C42.979375 54.7625 42.95875 53.525 42.9375 52.25 C42.93233319 49.3359175 43.06984442 46.79046673 44 44 C43.01 43.67 42.02 43.34 41 43 C39.83217918 37.33197792 40.30487285 33.17511214 41.8125 27.625 C41.99103516 26.90183594 42.16957031 26.17867187 42.35351562 25.43359375 C42.82948141 23.6018987 43.40718986 21.79728304 44 20 C44.66 19.67 45.32 19.34 46 19 C46.57758155 17.01290485 46.57758155 17.01290485 46.9375 14.6875 C47.65121426 11.10179958 48.40999254 8.70773508 51 6 C51.99 6.33 52.98 6.66 54 7 C54 6.34 54 5.68 54 5 C55.98 4.34 57.96 3.68 60 3 C59.79375 3.61875 59.5875 4.2375 59.375 4.875 C59.189375 5.926875 59.189375 5.926875 59 7 C59.66 7.66 60.32 8.32 61 9 C60.37806106 10.75109022 59.75232002 12.50083031 59.125 14.25 C58.60292969 15.71179688 58.60292969 15.71179688 58.0703125 17.203125 C57 20 57 20 55.8359375 22.19921875 C54.67525973 24.6995573 55.45765384 26.35606245 56 29 C55.34 29.99 54.68 30.98 54 32 C54.0825 33.093125 54.165 34.18625 54.25 35.3125 C53.94494753 39.8120239 52.75530356 40.95486107 49.60546875 43.93359375 C48 45 48 45 45 45 C45 49.62 45 54.24 45 59 C45.804375 57.72125 46.60875 56.4425 47.4375 55.125 C53.39508991 46.21658504 60.84940159 38.89814239 69 32 C69.66 32.33 70.32 32.66 71 33 C70.00033203 33.93005859 70.00033203 33.93005859 68.98046875 34.87890625 C58.86460198 44.59862718 50.37966494 55.46065857 44 68 C43.34 68 42.68 68 42 68 C41.92523438 67.45214844 41.85046875 66.90429688 41.7734375 66.33984375 C40.69287307 59.82467587 38.58627058 54.05595928 36.03271484 48.00366211 C34 43.17298245 34 43.17298245 34 41 C33.0925 41.0825 32.185 41.165 31.25 41.25 C28 41 28 41 25.625 39.25 C24 37 24 37 24 33 C22.62514468 31.45833358 22.62514468 31.45833358 21 30 C20.5359375 29.01 20.5359375 29.01 20.0625 28 C19.10647984 25.858506 19.10647984 25.858506 17 24.5 C14.76721883 22.82541412 14.19427439 21.46816707 13 19 C12.01 18.34 11.02 17.68 10 17 C9 16 8 15 7 14 C6.278125 13.505 5.55625 13.01 4.8125 12.5 C4.214375 12.005 3.61625 11.51 3 11 C3 9.33333333 3 7.66666667 3 6 C4.32 6 5.64 6 7 6 C7 6.66 7 7.32 7 8 C7.99 7.67 8.98 7.34 10 7 C10.33 7 10.66 7 11 7 C8.95364327 5.90373746 7.23312415 5.04238621 4.9375 4.625 C2.30023717 3.77427005 1.46959151 2.27786684 0 0 Z " fill="#3C3C3C" transform="translate(7,12)"/>
<path d="M0 0 C-0.309375 0.928125 -0.309375 0.928125 -0.625 1.875 C-0.74875 2.57625 -0.8725 3.2775 -1 4 C-0.34 4.66 0.32 5.32 1 6 C0.37806106 7.75109022 -0.24767998 9.50083031 -0.875 11.25 C-1.22304687 12.22453125 -1.57109375 13.1990625 -1.9296875 14.203125 C-3 17 -3 17 -4.1640625 19.19921875 C-5.32474027 21.6995573 -4.54234616 23.35606245 -4 26 C-4.66 26.99 -5.32 27.98 -6 29 C-5.938125 30.7325 -5.938125 30.7325 -5.875 32.5 C-6 36 -6 36 -8 37.9375 C-8.66 38.288125 -9.32 38.63875 -10 39 C-10 38.01 -10 37.02 -10 36 C-10.66 36 -11.32 36 -12 36 C-12.33 37.32 -12.66 38.64 -13 40 C-16 40 -16 40 -18.2265625 38.36328125 C-20 36 -20 36 -20.0234375 33.23046875 C-19.80945312 32.22628906 -19.59546875 31.22210938 -19.375 30.1875 C-19.15585937 29.13304688 -18.93671875 28.07859375 -18.7109375 26.9921875 C-18.35902344 25.51105469 -18.35902344 25.51105469 -18 24 C-17.82726563 23.23945312 -17.65453125 22.47890625 -17.4765625 21.6953125 C-17 19.8125 -17 19.8125 -16 17 C-15.34 16.67 -14.68 16.34 -14 16 C-13.42241845 14.01290485 -13.42241845 14.01290485 -13.0625 11.6875 C-12.34878574 8.10179958 -11.59000746 5.70773508 -9 3 C-8.01 3.33 -7.02 3.66 -6 4 C-6 3.34 -6 2.68 -6 2 C-2.25 0 -2.25 0 0 0 Z " fill="#464646" transform="translate(67,15)"/>
<path d="M0 0 C0.33 2.64 0.66 5.28 1 8 C1.66 8 2.32 8 3 8 C7.76923077 15.84615385 7.76923077 15.84615385 8 20 C7.34 20.99 6.68 21.98 6 23 C6.86975999 25.9237114 6.86975999 25.9237114 8.375 29 C11 34.72727273 11 34.72727273 11 38 C11.66 38 12.32 38 13 38 C12.979375 36.7625 12.95875 35.525 12.9375 34.25 C12.93233319 31.3359175 13.06984442 28.79046673 14 26 C13.01 25.67 12.02 25.34 11 25 C11 24.01 11 23.02 11 22 C11.99 22.33 12.98 22.66 14 23 C14 23.66 14 24.32 14 25 C17.24849977 23.27773504 17.24849977 23.27773504 18 20 C18.99 20.33 19.98 20.66 21 21 C20.25 23.4375 20.25 23.4375 19 26 C17.68 26.33 16.36 26.66 15 27 C15 31.62 15 36.24 15 41 C15.804375 39.72125 16.60875 38.4425 17.4375 37.125 C23.39508991 28.21658504 30.84940159 20.89814239 39 14 C39.66 14.33 40.32 14.66 41 15 C40.33355469 15.62003906 39.66710937 16.24007812 38.98046875 16.87890625 C28.86460198 26.59862718 20.37966494 37.46065857 14 50 C13.34 50 12.68 50 12 50 C11.92523438 49.45214844 11.85046875 48.90429688 11.7734375 48.33984375 C10.69287307 41.82467587 8.58627058 36.05595928 6.03271484 30.00366211 C4 25.17298245 4 25.17298245 4 23 C3.0925 23.0825 2.185 23.165 1.25 23.25 C-2 23 -2 23 -4.375 21.25 C-6 19 -6 19 -6 15 C-6.33 14.34 -6.66 13.68 -7 13 C-5.35 13 -3.7 13 -2 13 C-2 14.32 -2 15.64 -2 17 C1.12197478 15.6910428 1.12197478 15.6910428 3 13 C2.01 12.67 1.02 12.34 0 12 C0.33 11.01 0.66 10.02 1 9 C0.01 9 -0.98 9 -2 9 C-2 8.01 -2 7.02 -2 6 C-2.66 6 -3.32 6 -4 6 C-4 4.35 -4 2.7 -4 1 C-1 0 -1 0 0 0 Z " fill="#4D4D4D" transform="translate(37,30)"/>
<path d="M0 0 C1.79570284 2.66125745 2.03345719 3.78111062 1.5390625 7.015625 C1.08660156 8.61664063 1.08660156 8.61664063 0.625 10.25 C0.32851563 11.32765625 0.03203125 12.4053125 -0.2734375 13.515625 C-0.51320312 14.33546875 -0.75296875 15.1553125 -1 16 C-0.34 16 0.32 16 1 16 C1 15.01 1 14.02 1 13 C2.65 13.33 4.3 13.66 6 14 C5.01 14.495 5.01 14.495 4 15 C4 15.66 4 16.32 4 17 C4.99 16.67 5.98 16.34 7 16 C7.33 14.35 7.66 12.7 8 11 C7.38125 11.185625 6.7625 11.37125 6.125 11.5625 C4 12 4 12 2 11 C2 10.34 2 9.68 2 9 C3.98 9 5.96 9 8 9 C8.66 7.68 9.32 6.36 10 5 C10.66 5 11.32 5 12 5 C11.125 9.75 11.125 9.75 10 12 C10.061875 13.134375 10.12375 14.26875 10.1875 15.4375 C10 19 10 19 8 20.9375 C7.34 21.288125 6.68 21.63875 6 22 C6 21.01 6 20.02 6 19 C5.34 19 4.68 19 4 19 C3.67 20.32 3.34 21.64 3 23 C0 23 0 23 -2.2265625 21.36328125 C-4 19 -4 19 -4.0234375 16.23046875 C-3.80945312 15.22628906 -3.59546875 14.22210938 -3.375 13.1875 C-3.1584375 12.13433594 -2.941875 11.08117187 -2.71875 9.99609375 C-1.90921448 6.62156255 -1.0521916 3.30688789 0 0 Z " fill="#434343" transform="translate(51,32)"/>
<path d="M0 0 C0.66 1.32 1.32 2.64 2 4 C1.01 4.495 1.01 4.495 0 5 C0 6.65 0 8.3 0 10 C0.66 10 1.32 10 2 10 C2 10.99 2 11.98 2 13 C2.99 13 3.98 13 5 13 C5 13.99 5 14.98 5 16 C5.66 16.33 6.32 16.66 7 17 C6.01 19.475 6.01 19.475 5 22 C4.01 21.67 3.02 21.34 2 21 C2 19.68 2 18.36 2 17 C0.02 17.33 -1.96 17.66 -4 18 C-4.33 17.01 -4.66 16.02 -5 15 C-5.66 14.34 -6.32 13.68 -7 13 C-8.33333333 11.66666667 -9.66666667 10.33333333 -11 9 C-8.36 8.67 -5.72 8.34 -3 8 C-2.01 5.36 -1.02 2.72 0 0 Z " fill="#5C5C5C" transform="translate(33,26)"/>
<path d="M0 0 C-0.20625 0.61875 -0.4125 1.2375 -0.625 1.875 C-0.74875 2.57625 -0.8725 3.2775 -1 4 C-0.34 4.66 0.32 5.32 1 6 C0.43613497 7.65260442 -0.15178717 9.29701637 -0.75 10.9375 C-1.07484375 11.85402344 -1.3996875 12.77054688 -1.734375 13.71484375 C-3 16 -3 16 -5.140625 16.81640625 C-5.75421875 16.87699219 -6.3678125 16.93757813 -7 17 C-7 16.01 -7 15.02 -7 14 C-7.66 13.34 -8.32 12.68 -9 12 C-9 12.99 -9 13.98 -9 15 C-9.66 15 -10.32 15 -11 15 C-10.67 12.69 -10.34 10.38 -10 8 C-9.34 8 -8.68 8 -8 8 C-8 6.68 -8 5.36 -8 4 C-7.34 4 -6.68 4 -6 4 C-6 3.34 -6 2.68 -6 2 C-2.25 0 -2.25 0 0 0 Z " fill="#535353" transform="translate(67,15)"/>
<path d="M0 0 C0.66 0.33 1.32 0.66 2 1 C1.33355469 1.62003906 0.66710937 2.24007812 -0.01953125 2.87890625 C-9.93329988 12.40444338 -17.99791116 23.16888437 -25 35 C-25.95678913 32.45834544 -26.09074544 31.26776609 -25.20703125 28.66015625 C-19.11533391 17.31287689 -9.96755767 8.06199518 0 0 Z " fill="#0E0E0E" transform="translate(76,44)"/>
<path d="M0 0 C0.33 2.64 0.66 5.28 1 8 C1.66 8 2.32 8 3 8 C7.42857143 15.28571429 7.42857143 15.28571429 8 20 C7.01 20.33 6.02 20.66 5 21 C4.67 20.01 4.34 19.02 4 18 C3.34 18.66 2.68 19.32 2 20 C-1.375 19.3125 -1.375 19.3125 -5 18 C-6.4375 15.375 -6.4375 15.375 -7 13 C-5.35 13 -3.7 13 -2 13 C-2 14.32 -2 15.64 -2 17 C1.12197478 15.6910428 1.12197478 15.6910428 3 13 C2.01 12.67 1.02 12.34 0 12 C0.33 11.01 0.66 10.02 1 9 C0.01 9 -0.98 9 -2 9 C-2 8.01 -2 7.02 -2 6 C-2.66 6 -3.32 6 -4 6 C-4 4.35 -4 2.7 -4 1 C-1 0 -1 0 0 0 Z " fill="#141414" transform="translate(37,30)"/>
<path d="M0 0 C0.33 0 0.66 0 1 0 C1.12117188 0.63808594 1.24234375 1.27617188 1.3671875 1.93359375 C1.53476562 2.75988281 1.70234375 3.58617187 1.875 4.4375 C2.03742187 5.26121094 2.19984375 6.08492187 2.3671875 6.93359375 C2.57601562 7.61550781 2.78484375 8.29742187 3 9 C3.66 9.33 4.32 9.66 5 10 C4.67 13.96 4.34 17.92 4 22 C3.34 22 2.68 22 2 22 C0.02 16.72 -1.96 11.44 -4 6 C-3.01 5.01 -2.02 4.02 -1 3 C-0.67 2.01 -0.34 1.02 0 0 Z " fill="#F5F5F5" transform="translate(46,46)"/>
<path d="M0 0 C1.32 1.32 2.64 2.64 4 4 C3.67 4.66 3.34 5.32 3 6 C3.33 6.33 3.66 6.66 4 7 C4.66 5.68 5.32 4.36 6 3 C6.99 3.33 7.98 3.66 9 4 C7.515 6.475 7.515 6.475 6 9 C3.03 8.505 3.03 8.505 0 8 C0 8.66 0 9.32 0 10 C1.98 10 3.96 10 6 10 C6 11.65 6 13.3 6 15 C4.68 15.33 3.36 15.66 2 16 C1.67 15.01 1.34 14.02 1 13 C0.34 12.67 -0.32 12.34 -1 12 C-1 12.99 -1 13.98 -1 15 C-1.66 15 -2.32 15 -3 15 C-2.44854729 9.76119922 -1.57077907 5.02649303 0 0 Z " fill="#131313" transform="translate(53,33)"/>
<path d="M0 0 C1.32 0 2.64 0 4 0 C4 0.66 4 1.32 4 2 C4.99 2.33 5.98 2.66 7 3 C11.66666667 7.33333333 11.66666667 7.33333333 13 10 C10.03 9.67 7.06 9.34 4 9 C4 8.34 4 7.68 4 7 C2.68 6.34 1.36 5.68 0 5 C0 3.33333333 0 1.66666667 0 0 Z " fill="#323232" transform="translate(10,18)"/>
<path d="M0 0 C0.66 0 1.32 0 2 0 C1.125 4.75 1.125 4.75 0 7 C0.061875 8.134375 0.12375 9.26875 0.1875 10.4375 C0 14 0 14 -2 15.9375 C-2.66 16.288125 -3.32 16.63875 -4 17 C-4 13.06121709 -3.2432943 9.7298829 -2 6 C-2.61875 6.185625 -3.2375 6.37125 -3.875 6.5625 C-6 7 -6 7 -8 6 C-8 5.34 -8 4.68 -8 4 C-6.02 4 -4.04 4 -2 4 C-1.34 2.68 -0.68 1.36 0 0 Z " fill="#8B8B8B" transform="translate(61,37)"/>
<path d="M0 0 C0.66 0.33 1.32 0.66 2 1 C-1.66666667 4.66666667 -5.33333333 8.33333333 -9 12 C-9.71671875 12.75796875 -10.4334375 13.5159375 -11.171875 14.296875 C-13 16 -13 16 -16 17 C-12.88767901 9.87024427 -5.95899289 4.76719431 0 0 Z " fill="#232323" transform="translate(76,44)"/>
<path d="M0 0 C0.66 1.32 1.32 2.64 2 4 C1.01 4.495 1.01 4.495 0 5 C0 7.31 0 9.62 0 12 C-6.4 12.36923077 -6.4 12.36923077 -9.4375 10.5 C-9.953125 10.005 -10.46875 9.51 -11 9 C-8.36 8.67 -5.72 8.34 -3 8 C-2.01 5.36 -1.02 2.72 0 0 Z " fill="#535353" transform="translate(33,26)"/>
<path d="M0 0 C1.42944945 2.35438733 2.08661261 3.48032433 1.625 6.25 C1.41875 6.8275 1.2125 7.405 1 8 C0.67 7.34 0.34 6.68 0 6 C-0.9075 6.0825 -1.815 6.165 -2.75 6.25 C-6 6 -6 6 -8.375 4 C-8.91125 3.34 -9.4475 2.68 -10 2 C-8.72125 2.04125 -7.4425 2.0825 -6.125 2.125 C-3.98128508 2.24212873 -3.98128508 2.24212873 -2 2 C-1.34 1.34 -0.68 0.68 0 0 Z " fill="#565656" transform="translate(41,47)"/>
<path d="M0 0 C1.11375 0.2475 1.11375 0.2475 2.25 0.5 C5.19006578 1.11925696 5.19006578 1.11925696 9 1 C11.25 2 11.25 2 13 3 C12.67 4.32 12.34 5.64 12 7 C10.88625 6.5359375 10.88625 6.5359375 9.75 6.0625 C7.14840586 4.95577631 7.14840586 4.95577631 4.875 4.625 C2.29134495 3.76378165 1.44413681 2.23841206 0 0 Z " fill="#1B1B1B" transform="translate(7,12)"/>
<path d="M0 0 C1.74388846 2.60955971 2.04494348 3.71967459 1.5390625 6.875 C1.23742188 7.90625 0.93578125 8.9375 0.625 10 C-0.41639052 13.62222788 -1 16.19014612 -1 20 C-1.99 19.67 -2.98 19.34 -4 19 C-3.00318287 12.54189755 -1.98363508 6.23428168 0 0 Z " fill="#A0A0A0" transform="translate(51,32)"/>
<path d="M0 0 C0.99 0.33 1.98 0.66 3 1 C2.43613497 2.65260442 1.84821283 4.29701637 1.25 5.9375 C0.76273437 7.31228516 0.76273437 7.31228516 0.265625 8.71484375 C-1 11 -1 11 -3.140625 11.81640625 C-3.75421875 11.87699219 -4.3678125 11.93757813 -5 12 C-5 10.33333333 -5 8.66666667 -5 7 C-3.66666667 5.66666667 -2.33333333 4.33333333 -1 3 C-0.67 2.01 -0.34 1.02 0 0 Z " fill="#161616" transform="translate(65,20)"/>
<path d="M0 0 C0.99 0.33 1.98 0.66 3 1 C2.25 3.4375 2.25 3.4375 1 6 C-1.125 6.8125 -1.125 6.8125 -3 7 C-3.33 8.32 -3.66 9.64 -4 11 C-4 9.35 -4 7.7 -4 6 C-4.99 5.67 -5.98 5.34 -7 5 C-7 4.01 -7 3.02 -7 2 C-6.01 2.33 -5.02 2.66 -4 3 C-4 3.66 -4 4.32 -4 5 C-0.75150023 3.27773504 -0.75150023 3.27773504 0 0 Z " fill="#181818" transform="translate(55,50)"/>
<path d="M0 0 C2 2 2 2 2 5 C1.34 5 0.68 5 0 5 C-0.66 8.63 -1.32 12.26 -2 16 C-2.66 15.67 -3.32 15.34 -4 15 C-3.63495936 9.33557626 -2.9445679 4.99296295 0 0 Z " fill="#999999" transform="translate(57,18)"/>
<path d="M0 0 C0.33 0.66 0.66 1.32 1 2 C0.26418258 3.1549921 -0.48930039 4.29874185 -1.25 5.4375 C-1.66765625 6.07558594 -2.0853125 6.71367188 -2.515625 7.37109375 C-4.27248877 9.29902057 -5.46089803 9.61479436 -8 10 C-6.5682479 4.98886765 -4.01554307 3.05530451 0 0 Z " fill="#181818" transform="translate(62,59)"/>
<path d="M0 0 C1.231394 3.69418201 0.64432764 6.2056261 0 10 C-2.97 9.505 -2.97 9.505 -6 9 C-5.34 7.68 -4.68 6.36 -4 5 C-3.01 5 -2.02 5 -1 5 C-0.67 3.35 -0.34 1.7 0 0 Z " fill="#606060" transform="translate(24,17)"/>
<path d="M0 0 C0.66 0 1.32 0 2 0 C2.25 3.3125 2.25 3.3125 2 7 C0 8.9375 0 8.9375 -2 10 C-2 6.39199098 -1.62364368 3.24728736 0 0 Z " fill="#B8B8B8" transform="translate(59,44)"/>
<path d="M0 0 C1.65 0.33 3.3 0.66 5 1 C4.01 1.495 4.01 1.495 3 2 C3 2.66 3 3.32 3 4 C4.32 4.33 5.64 4.66 7 5 C4.69 5.33 2.38 5.66 0 6 C-0.66 5.01 -1.32 4.02 -2 3 C-1.34 3 -0.68 3 0 3 C0 2.01 0 1.02 0 0 Z " fill="#757575" transform="translate(52,45)"/>
<path d="M0 0 C1.32 0.66 2.64 1.32 4 2 C3.34 2.66 2.68 3.32 2 4 C3.32 4.33 4.64 4.66 6 5 C6 5.33 6 5.66 6 6 C3.69 6 1.38 6 -1 6 C-1.33 5.01 -1.66 4.02 -2 3 C-1.34 3 -0.68 3 0 3 C0 2.01 0 1.02 0 0 Z " fill="#747474" transform="translate(58,27)"/>
<path d="M0 0 C0.66 0 1.32 0 2 0 C1.38461538 5.53846154 1.38461538 5.53846154 -0.5625 7.875 C-1.2740625 8.431875 -1.2740625 8.431875 -2 9 C-2.66 8.67 -3.32 8.34 -4 8 C-3.525625 7.236875 -3.05125 6.47375 -2.5625 5.6875 C-0.89893903 3.03589452 -0.89893903 3.03589452 0 0 Z " fill="#B9B9B9" transform="translate(65,27)"/>
<path d="M0 0 C0 1.98 0 3.96 0 6 C-0.99 6.495 -0.99 6.495 -2 7 C-2.66 6.67 -3.32 6.34 -4 6 C-4 4.35 -4 2.7 -4 1 C-1 0 -1 0 0 0 Z " fill="#2E2E2E" transform="translate(37,30)"/>
<path d="M0 0 C0.99 0.33 1.98 0.66 3 1 C3 1.99 3 2.98 3 4 C2.34 4 1.68 4 1 4 C1 4.99 1 5.98 1 7 C0.34 7 -0.32 7 -1 7 C-0.67 4.69 -0.34 2.38 0 0 Z " fill="#131313" transform="translate(57,23)"/>
<path d="M0 0 C0.66 1.32 1.32 2.64 2 4 C0.35 4.66 -1.3 5.32 -3 6 C-3 4.35 -3 2.7 -3 1 C-2.01 0.67 -1.02 0.34 0 0 Z " fill="#353535" transform="translate(30,23)"/>
<path d="M0 0 C1.5625 1.1875 1.5625 1.1875 3 3 C2.6875 5.6875 2.6875 5.6875 2 8 C1.34 8 0.68 8 0 8 C0 5.36 0 2.72 0 0 Z " fill="#2C2C2C" transform="translate(42,43)"/>
<path d="M0 0 C0.66 0.33 1.32 0.66 2 1 C2 4 2 4 0 7 C-0.99 6.67 -1.98 6.34 -3 6 C-2.01 4.02 -1.02 2.04 0 0 Z " fill="#A9A9A9" transform="translate(68,19)"/>
<path d="M0 0 C1.32 0 2.64 0 4 0 C4 0.66 4 1.32 4 2 C4.99 2.33 5.98 2.66 7 3 C7 3.33 7 3.66 7 4 C5.02 4 3.04 4 1 4 C0.67 2.68 0.34 1.36 0 0 Z " fill="#0E0E0E" transform="translate(10,18)"/>
<path d="M0 0 C1.6875 1.5 1.6875 1.5 3 3 C2.67 3.66 2.34 4.32 2 5 C0.35 4.67 -1.3 4.34 -3 4 C-3 3.34 -3 2.68 -3 2 C-3.99 1.67 -4.98 1.34 -6 1 C-3 0 -3 0 0 0 Z " fill="#A5A5A5" transform="translate(17,16)"/>
</svg>
