<?xml version="1.0" standalone="no"?>
<!DOCTYPE svg PUBLIC "-//W3C//DTD SVG 20010904//EN"
 "http://www.w3.org/TR/2001/REC-SVG-20010904/DTD/svg10.dtd">
<svg version="1.0" xmlns="http://www.w3.org/2000/svg"
 width="256.000000pt" height="64.000000pt" viewBox="0 0 256.000000 64.000000"
 preserveAspectRatio="xMidYMid meet">

<g transform="translate(0.000000,64.000000) scale(0.100000,-0.100000)"
fill="#000000" stroke="none">
<path d="M1025 514 c-49 -24 -98 -44 -107 -44 -16 0 -18 -14 -18 -143 0 -142
0 -145 28 -183 31 -42 71 -75 143 -116 l45 -27 53 30 c121 66 172 129 170 211
l-1 43 -8 -47 c-5 -27 -17 -63 -28 -80 -22 -35 -95 -94 -149 -122 -31 -15 -35
-15 -65 0 -69 35 -140 96 -159 138 -27 59 -28 274 -1 282 9 4 56 24 105 47
l87 40 88 -40 c48 -23 95 -43 104 -46 12 -4 18 -20 21 -59 l3 -53 2 58 c2 56
1 58 -28 69 -17 5 -67 28 -111 49 -44 21 -81 39 -82 38 -1 0 -42 -20 -92 -45z"/>
<path d="M1083 493 c-18 -9 -33 -20 -33 -25 0 -11 7 -10 39 7 27 13 34 12 110
-23 56 -25 81 -42 81 -54 0 -9 5 -20 10 -23 6 -4 10 6 10 22 0 25 -8 32 -87
68 -47 22 -89 41 -92 42 -3 1 -21 -6 -38 -14z"/>
<path d="M980 408 c-22 -78 12 -150 81 -173 22 -8 36 -20 40 -36 8 -29 11
-119 4 -119 -11 0 -82 49 -107 75 -25 24 -39 55 -51 110 -3 11 -5 3 -6 -19 -1
-23 7 -52 20 -72 22 -36 131 -114 158 -114 24 0 100 51 137 91 33 36 49 69 34
69 -5 0 -11 -9 -15 -19 -7 -24 -73 -84 -116 -106 l-32 -17 5 56 c4 47 10 62
38 91 19 19 29 35 24 35 -6 0 -15 -5 -22 -12 -22 -22 -26 2 -5 30 17 22 29 28
72 30 28 2 51 0 51 -4 0 -18 -56 -77 -84 -90 -30 -13 -30 -13 -5 -14 26 0 61
30 94 83 23 35 10 47 -52 47 -56 0 -103 -38 -103 -83 0 -63 -15 -61 -49 8 -18
36 -36 65 -42 65 -12 0 -12 -17 1 -25 5 -3 15 -15 20 -26 17 -31 -16 -24 -51
10 -24 25 -29 38 -29 79 0 27 3 51 6 55 13 13 88 -49 105 -88 15 -31 19 -35
19 -17 0 36 -14 55 -74 100 l-55 42 -11 -42z"/>
<path d="M786 422 c-18 -2 -25 -7 -17 -11 9 -6 8 -14 -4 -37 -10 -20 -15 -59
-15 -125 0 -53 2 -98 5 -101 3 -2 18 -3 33 0 l29 4 6 131 c4 72 3 134 -1 137
-4 3 -20 4 -36 2z"/>
<path d="M164 383 c-24 -56 -74 -205 -74 -220 0 -8 13 -13 34 -13 26 0 36 5
41 20 3 11 9 20 13 20 4 0 17 3 29 6 18 5 22 1 25 -23 2 -23 9 -29 32 -31 16
-2 33 1 38 6 10 10 -26 222 -43 254 -6 12 -21 18 -44 18 -31 0 -37 -5 -51 -37z
m56 -98 c0 -14 -6 -25 -14 -25 -9 0 -12 8 -8 25 2 14 8 25 13 25 5 0 9 -11 9
-25z m60 -97 c0 -19 -2 -20 -10 -8 -13 19 -13 30 0 30 6 0 10 -10 10 -22z"/>
<path d="M385 398 c-36 -28 -55 -76 -55 -138 0 -51 12 -88 34 -102 6 -4 30 -8
53 -8 34 0 46 5 67 31 29 34 35 89 12 108 -7 6 -26 8 -44 5 -24 -5 -31 -12
-34 -35 -3 -17 -1 -32 4 -35 5 -3 6 -10 2 -15 -11 -18 -34 13 -33 45 0 46 22
101 39 101 8 0 15 -9 15 -20 0 -15 8 -21 33 -23 31 -3 32 -2 32 36 0 69 -67
96 -125 50z"/>
<path d="M563 410 c-19 -8 -23 -17 -23 -52 0 -24 -3 -80 -7 -125 l-6 -83 31 0
c28 0 31 3 34 37 4 50 22 52 50 4 25 -45 33 -48 63 -25 20 15 20 15 -1 52 -21
36 -21 36 -2 63 26 35 27 92 3 119 -14 15 -30 20 -69 19 -28 0 -61 -4 -73 -9z
m97 -62 c0 -16 -31 -48 -47 -48 -13 0 -18 41 -6 53 11 12 53 8 53 -5z"/>
<path d="M1390 380 c0 -39 1 -39 30 -33 l30 6 0 -100 c0 -55 2 -102 5 -105 3
-2 18 -3 35 0 l29 4 3 102 3 101 30 5 c24 4 31 11 33 33 l3 27 -100 0 -101 0
0 -40z"/>
<path d="M1638 413 c-22 -6 -25 -21 -33 -156 l-6 -108 33 3 c30 3 33 6 36 41
4 47 19 45 47 -6 22 -41 30 -44 59 -22 19 14 19 16 3 51 -17 35 -17 38 4 80
37 78 9 125 -74 123 -29 -1 -60 -3 -69 -6z m92 -67 c0 -19 -27 -46 -46 -46
-14 0 -20 41 -7 53 12 13 53 7 53 -7z"/>
<path d="M1885 353 c-27 -66 -65 -180 -65 -195 0 -5 16 -8 36 -8 27 0 37 5 41
20 3 11 8 20 12 20 3 0 16 3 27 6 17 5 24 0 32 -25 8 -24 17 -31 37 -31 14 0
28 6 31 14 7 18 -24 190 -42 234 -11 27 -18 32 -47 32 -34 0 -36 -3 -62 -67z
m65 -68 c0 -14 -4 -25 -10 -25 -11 0 -14 33 -3 43 11 11 13 8 13 -18z m63 -96
c4 -16 3 -18 -9 -8 -7 6 -11 15 -8 20 8 13 11 11 17 -12z"/>
<path d="M2094 410 c-19 -7 -22 -19 -28 -130 -4 -66 -4 -125 0 -131 8 -13 92
-1 121 17 59 37 85 174 42 228 -17 22 -28 26 -67 25 -26 0 -56 -4 -68 -9z m86
-65 c23 -27 -14 -132 -43 -122 -10 3 -11 112 -1 129 8 13 31 9 44 -7z"/>
<path d="M2283 408 c-4 -7 -9 -68 -11 -136 l-4 -123 88 3 89 3 3 33 3 32 -55
0 c-41 0 -56 4 -56 14 0 14 29 26 68 26 18 0 22 6 22 30 0 29 -2 30 -45 30
-31 0 -45 4 -45 14 0 9 19 16 60 20 58 7 60 8 60 36 l0 30 -84 0 c-57 0 -87
-4 -93 -12z"/>
<path d="M90 100 c0 -20 5 -20 372 -18 346 3 373 4 376 21 3 16 -20 17 -372
17 -370 0 -376 0 -376 -20z"/>
<path d="M1392 103 c3 -17 37 -18 543 -18 506 0 540 1 543 17 3 17 -28 18
-543 18 -515 0 -546 -1 -543 -17z"/>
</g>
</svg>
